<svg width="53" height="78" viewBox="0 0 53 78" fill="none" xmlns="http://www.w3.org/2000/svg">
<path d="M5.1962 77.7103C3.84136 77.5517 2.5348 77.5229 1.25938 77.2315C-0.0167478 76.9399 -0.225296 76.5851 0.199859 75.3734C1.00945 73.0661 2.62312 71.5049 4.8686 70.528C5.23492 70.3686 5.60256 70.2122 5.93811 70.0679C6.01693 69.7831 5.84908 69.64 5.74172 69.4818C3.83544 66.6717 4.51133 63.8202 7.50364 62.1367C8.18411 61.7539 8.89778 61.4269 9.60219 61.0862C10.0162 60.8859 10.0715 60.6445 9.73298 60.3316C8.71293 59.3888 7.97655 58.2772 7.62494 56.9361C7.55507 56.6696 7.34559 56.5625 7.10933 56.4623C6.51035 56.2083 6.21925 55.8006 6.49419 55.1497C6.55766 54.9994 6.55856 54.8591 6.52141 54.7012C6.41404 54.245 6.62297 53.944 7.07931 53.9075C7.48833 53.8748 7.60161 53.6483 7.68651 53.3278C7.77672 52.9872 7.86712 52.6429 8.00329 52.3187C8.23164 51.7751 8.61466 51.2497 7.75558 50.8612C7.50668 50.7487 7.42129 50.3505 7.62256 50.16C8.08724 49.7202 7.79683 48.8077 8.63374 48.6394C8.87463 48.5909 9.04175 48.7845 9.21718 48.9228C9.48328 49.1325 9.71656 49.0339 9.79596 48.7588C10.0597 47.8449 10.5792 47.1258 11.3512 46.5566C13.2805 45.134 14.4127 43.113 15.6 41.1252C17.7566 37.5146 19.9247 33.91 22.1422 30.3352C22.7162 29.4098 22.9362 28.577 22.4208 27.5635C21.8175 26.3771 22.2883 25.2929 22.9336 24.2657C23.0933 24.0114 23.3602 23.8796 23.6429 23.7883C24.1714 23.6177 24.7467 23.6386 25.2548 23.3528C25.5281 23.199 25.8102 23.4258 26.0246 23.5596C26.3298 23.4997 26.4154 23.2764 26.5245 23.0946C29.1105 18.7862 31.6988 14.479 34.2712 10.1627C36.1294 7.04484 37.9684 3.91593 39.8082 0.7875C40.1033 0.285726 40.513 -0.05292 41.1063 0.00682171C41.8459 0.0812993 42.5866 0.0557167 43.3233 0.111474C44.3724 0.190873 44.766 0.715892 44.5425 1.7117C44.4567 2.09346 44.3529 2.49991 44.1391 2.81889C43.7978 3.32788 43.2717 3.75006 43.86 4.41064C43.9614 4.52442 43.8957 4.72089 43.7873 4.84136C43.5455 5.11001 43.4085 5.42046 43.2829 5.75525C43.1588 6.08594 42.876 6.29762 42.4789 6.16961C42.2055 6.08147 42.0481 6.195 41.9215 6.40068C41.7782 6.63333 41.6477 6.87621 41.8829 7.12474C42.2371 7.49907 42.1374 7.81423 41.8118 8.15892C41.6522 8.32781 41.5942 8.58652 41.4798 8.7992C41.2931 9.14629 41.0436 9.4749 40.6008 9.37068C40.219 9.28078 40.0767 9.4499 39.9181 9.7176C36.6811 15.1824 33.441 20.6455 30.1996 26.1078C28.9692 28.1813 27.8125 30.3024 26.4757 32.3079C25.4508 33.8455 25.4342 35.4952 25.4711 37.1882C25.4874 37.9338 25.6318 38.6759 25.6809 39.422C25.7117 39.8895 25.8702 40.036 26.3618 39.9129C27.4049 39.6516 28.4684 39.4683 29.5107 39.2041C30.2049 39.0282 30.8688 38.7364 31.4681 38.3498C32.1073 37.9374 32.7957 37.7262 33.5452 37.6459C33.8492 37.6134 34.272 37.7198 34.2374 37.1702C34.2003 36.5822 33.8444 36.0968 33.3802 36.1012C33.0231 36.1047 32.6645 36.1512 32.3101 36.2021C31.0861 36.3776 30.6675 36.0507 30.4605 34.8632C30.3562 34.2646 30.0385 33.712 29.9621 33.0965C29.954 33.0315 29.8475 32.9725 29.7784 32.9214C28.9922 32.339 28.9811 32.2457 29.5772 31.4675C29.8062 31.1684 30.0384 30.8691 30.2359 30.5502C30.3981 30.2882 30.5551 29.993 30.4336 29.6758C30.1143 28.8423 30.3014 28.0415 30.5473 27.2367C30.5979 27.0709 30.6579 26.8799 30.6215 26.7208C30.3947 25.7301 30.9144 25.0318 31.6512 24.5478C34.4469 22.7115 38.1889 22.5455 40.6979 25.1674C40.9268 25.4065 41.1314 25.6764 41.3031 25.9579C41.6008 26.4459 41.8465 26.9267 42.48 27.1398C42.8549 27.2659 43.1122 27.6493 42.7862 28.109C42.638 28.318 42.7308 28.5145 42.8363 28.7251C43.5358 30.1208 43.7145 31.5702 43.2687 33.0781C43.0788 33.7202 42.9925 34.3479 43.4231 34.9527C43.5663 35.1538 43.5399 35.4329 43.4512 35.6595C43.3245 35.9831 43.3804 36.2585 43.5863 36.5507C43.8354 36.4006 44.0581 35.9623 44.3958 36.3709C44.6789 36.7135 44.7296 37.2003 44.3953 37.4543C43.7118 37.9733 44.0683 38.3355 44.4243 38.8014C46.0132 40.8805 47.1512 43.1533 47.3123 45.7934C47.3777 46.8645 47.2921 47.9352 46.6456 48.8922C46.6035 47.992 46.4403 47.1305 46.0116 46.3225C46.2567 47.6182 45.5925 48.9252 46.1708 50.2366C45.7534 50.3124 45.7145 49.9471 45.4856 49.8198C45.1279 50.1488 45.1322 50.6256 45.035 51.2216C44.5248 50.5923 44.4472 49.9218 43.9029 49.3525C43.8106 50.5174 43.4726 51.5658 44.3815 52.4843C44.7237 52.8301 44.7645 53.3213 44.5601 53.7269C44.1794 54.4819 44.4606 55.0976 44.8775 55.6904C45.1754 56.114 45.4246 56.5365 45.4945 57.0592C45.5498 57.4724 45.7978 57.7683 46.1757 57.9875C46.9834 58.4558 47.2846 59.0611 46.9451 59.867C46.6714 60.5168 46.8777 61.0166 47.143 61.5523C47.6521 62.5802 48.3096 63.5388 48.6411 64.6495C49.4075 67.2164 48.7831 68.8664 46.5023 70.2923C46.3718 70.3739 46.2273 70.4381 46.1412 70.6591C47.4163 71.2756 48.6065 72.0126 49.7164 72.8667C50.833 73.726 51.8765 74.6625 52.7096 75.7995C53.197 76.4647 53.0769 76.8123 52.3039 77.0794C51.295 77.428 50.2315 77.461 49.1858 77.5629C47.7791 77.6999 46.3656 77.8038 44.9528 77.8414C33.8535 78.1371 22.7519 77.9226 11.6514 77.954C9.52095 77.96 7.39004 77.7992 5.1962 77.7103ZM27.4896 48.8552C27.7038 48.9951 27.8402 49.262 28.1756 49.254C28.5428 48.7669 28.9201 48.2779 29.2811 47.7776C29.3533 47.6775 29.4216 47.5187 29.3925 47.4134C29.1866 46.6696 29.4186 45.9829 29.6344 45.2891C29.7569 44.8949 29.5815 44.696 29.1733 44.6965C28.9502 44.6968 28.7264 44.7191 28.5041 44.7419C27.3907 44.8562 26.275 44.9965 25.156 44.9298C24.4674 44.8887 23.7842 44.7394 23.1026 44.6171C22.854 44.5725 22.6529 44.5837 22.5293 44.8188C22.41 45.0456 22.5669 45.1839 22.7178 45.3249C23.1224 45.703 23.4815 46.1221 23.91 46.4819C24.9894 47.3884 26.2309 48.0504 27.4896 48.8552ZM26.5373 58.1095C26.3073 58.5502 26.0773 58.9909 25.8401 59.4456C26.5853 59.5838 27.538 59.246 27.847 58.7391C28.1285 58.2772 28.5085 57.9732 29.0561 57.8826C29.2762 57.8463 29.4723 57.7986 29.6405 57.6095C30.4299 56.7218 30.8414 55.646 31.2407 54.5669C31.3349 54.3123 31.4285 53.974 31.1516 53.7683C30.8709 53.5598 30.6603 53.8547 30.4362 53.97C29.5331 54.4345 28.7179 55.1087 27.5939 55.0222C27.291 54.9989 27.1971 55.2628 27.1713 55.5226C27.0863 56.3795 26.8994 57.213 26.5373 58.1095Z" fill="#335599"/>
</svg>
