<svg width="482" height="183" viewBox="0 0 482 183" fill="none" xmlns="http://www.w3.org/2000/svg">
<path d="M156.899 62.143H149.912V86.4375C147.391 84.9418 143.759 83.6597 139.015 82.5914C134.571 81.5657 130.725 81.0529 127.477 81.0529C119.656 81.0529 113.097 82.4418 107.798 85.2195C104.806 86.8007 103.311 88.8733 103.311 91.4374C103.311 94.8561 105.105 96.5655 108.695 96.5655C110.875 96.5655 113.716 95.9245 117.221 94.6425C119.486 93.8305 122.391 92.8049 125.938 91.5656C127.434 91.0528 130.084 90.7964 133.887 90.7964C141.28 90.7964 146.793 93.0827 150.425 97.6552C152.177 99.8347 153.053 102.399 153.053 105.347C153.053 112.142 148.78 117.484 140.233 121.373C136.686 122.997 133.31 123.916 130.105 124.129C133.182 127.206 136.109 128.744 138.887 128.744C139.784 128.744 140.746 128.616 141.771 128.36L148.246 138.937C146.921 140.09 144.207 140.667 140.105 140.667C136.772 140.667 133.951 139.535 131.643 137.27C130.404 136.031 128.652 133.445 126.387 129.514C124.464 126.138 122.862 124.428 121.579 124.386C113.674 124.172 107.584 122.74 103.311 120.091C100.618 118.424 99.2721 116.138 99.2721 113.232C99.2721 109.642 101.409 107.847 105.682 107.847C107.263 107.847 110.554 109.087 115.554 111.565C120.597 114.001 124.742 115.219 127.99 115.219C134.485 115.219 140.575 113.681 146.259 110.604C149.036 109.108 150.425 107.27 150.425 105.091C150.425 101.843 147.861 100.219 142.733 100.219C141.152 100.219 136.045 101.373 127.413 103.681C122.327 105.048 119.208 105.732 118.054 105.732C111.259 105.732 105.661 102.527 101.259 96.1168C99.1226 93.0399 98.0542 89.728 98.0542 86.1811C98.0115 78.9589 102.947 74.0872 112.862 71.5659C116.921 70.5403 120.746 70.0275 124.336 70.0275C128.438 70.0275 134.25 71.0317 141.771 73.0402V62.143H90.7466V54.4508H156.899V62.143ZM216.001 62.143H173.95V78.6812C176.472 77.2282 180.596 75.3265 186.322 72.9761C188.672 72.3351 191.514 72.0146 194.848 72.0146C199.42 72.0146 203.501 73.2753 207.091 75.7966C211.108 78.5743 213.117 82.164 213.117 86.5657C213.117 92.5057 209.719 96.8219 202.924 99.5142C200.104 100.625 197.668 101.181 195.617 101.181L210.488 119.257L202.347 125.155L179.463 97.9757L183.694 89.1938C185.959 89.8348 188.331 90.1554 190.809 90.1554C194.442 90.1554 197.412 89.3007 199.719 87.5913C202.326 85.711 203.629 83.0187 203.629 79.5145C203.629 76.0957 201.194 74.3864 196.322 74.3864C192.903 74.3864 189.271 76.0316 185.425 79.3222C182.69 81.6726 180.19 84.5144 177.925 87.8477C175.19 91.8647 173.822 95.3048 173.822 98.168V125.027L162.797 120.091V62.143H154.656V54.4508H162.412C162.412 42.186 160.19 31.9939 155.746 23.8743C154.891 22.2932 153.246 19.9214 150.81 16.7591C148.502 13.7249 146.9 11.3104 146.002 9.51559H159.015C161.536 11.866 164.143 15.7334 166.835 21.118C171.408 30.2631 173.694 41.3741 173.694 54.4508H216.001V62.143ZM277.859 62.143H235.167V72.3992C235.338 72.3992 235.509 72.4847 235.68 72.6556C235.851 72.8266 236.001 72.912 236.129 72.912C235.787 72.912 235.595 72.8907 235.552 72.8479C235.552 72.6343 238.736 71.9505 245.103 70.7967C247.454 70.3693 249.783 70.1557 252.09 70.1557C261.706 70.1557 267.881 72.8479 270.616 78.2325C272.453 81.8221 273.372 89.0656 273.372 99.9629V124.642C272.475 124.3 269.077 122.911 263.18 120.475C263.18 119.108 262.902 118.232 262.347 117.847C260.082 119.172 258.223 120.176 256.77 120.86C252.154 123.039 246.791 124.129 240.68 124.129C232.262 124.129 225.766 121.48 221.193 116.181C218.971 113.617 217.86 110.753 217.86 107.591C217.86 104.044 219.612 100.518 223.116 97.0142C229.911 90.2195 238.351 86.8221 248.436 86.8221C254.547 86.8221 259.462 88.2323 263.18 91.0528V85.1554C261.3 82.7623 259.462 81.1598 257.667 80.3478C255.915 79.5359 253.501 79.1726 250.424 79.2581C243.543 79.3863 237.24 80.647 231.514 83.0401C228.95 84.1084 226.45 85.07 224.014 85.9246V81.1811C224.569 80.7111 225.381 80.0059 226.45 79.0658C226.621 78.8521 226.727 78.7239 226.77 78.6812V62.143H213.629V54.4508H277.859V62.143ZM263.18 102.719C263.18 100.839 260.936 99.1509 256.449 97.6552C252.731 96.4159 249.633 95.7963 247.154 95.7963C238.137 95.7963 230.915 99.0441 225.488 105.54C223.309 108.147 222.219 110.283 222.219 111.95C223.116 115.069 226.642 116.629 232.796 116.629C240.744 116.629 248.009 114.642 254.59 110.668C260.317 107.206 263.18 104.557 263.18 102.719ZM345.935 62.143H277.026V54.4508H345.935V62.143ZM332.153 90.2836C332.153 80.0273 327.303 74.8992 317.602 74.8992C310.423 74.8992 304.419 78.6598 299.59 86.1811C295.316 92.8476 293.179 99.9415 293.179 107.463V126.116L282.667 120.604V72.3992H293.692V80.0273L299.397 75.7325C304.44 71.9291 309.76 70.0275 315.359 70.0275C322.965 70.0275 329.269 72.9761 334.268 78.8735C338.969 84.4289 341.32 91.0741 341.32 98.8091C341.32 108.51 337.217 117.826 329.012 126.757L316.641 119.001C320.487 115.198 323.756 111.693 326.448 108.488C330.251 103.959 332.153 97.8903 332.153 90.2836ZM418.754 62.143H410.357L410.229 124.77L398.562 119.77V110.604C391.639 119.535 384.845 124.001 378.178 124.001C373.947 124.001 369.332 122.228 364.332 118.681C360.059 115.646 356.512 112.099 353.691 108.04C350.358 103.253 348.713 98.5954 348.755 94.0655C348.798 89.9203 351.084 85.1127 355.614 79.6427C360.7 73.4889 366.832 70.4121 374.011 70.4121C378.584 70.4121 383.178 72.3565 387.793 76.2453C389.204 77.3991 392.793 81.117 398.562 87.399V62.143H343.691V54.4508H398.562C398.562 45.6048 397.814 38.6818 396.319 33.6819C394.097 26.2461 389.139 17.4001 381.447 7.14383C381.276 7.05836 381.191 6.71649 381.191 6.1182C381.191 5.60539 381.319 5.26352 381.575 5.09258H393.819C404.844 17.2719 410.357 33.7246 410.357 54.4508H418.754V62.143ZM395.485 91.3092C395.485 87.9759 393.669 85.1127 390.037 82.7196C386.789 80.5829 383.413 79.5145 379.909 79.5145C377.345 79.5145 374.14 80.7111 370.294 83.1042C361.918 88.3178 357.73 94.4715 357.73 101.565C357.73 105.454 358.777 108.83 360.871 111.693C363.178 114.899 366.191 116.501 369.909 116.501C373.755 116.501 377.858 114.749 382.216 111.245C385.251 108.809 388.071 105.818 390.678 102.271C393.883 97.9116 395.485 94.2579 395.485 91.3092ZM480.42 62.143H437.728V72.3992C437.899 72.3992 438.07 72.4847 438.241 72.6556C438.412 72.8266 438.562 72.912 438.69 72.912C438.348 72.912 438.156 72.8907 438.113 72.8479C438.113 72.6343 441.297 71.9505 447.664 70.7967C450.015 70.3693 452.344 70.1557 454.651 70.1557C464.266 70.1557 470.442 72.8479 473.177 78.2325C475.014 81.8221 475.933 89.0656 475.933 99.9629V124.642C475.035 124.3 471.638 122.911 465.741 120.475C465.741 119.108 465.463 118.232 464.907 117.847C462.643 119.172 460.784 120.176 459.331 120.86C454.715 123.039 449.352 124.129 443.241 124.129C434.822 124.129 428.327 121.48 423.754 116.181C421.532 113.617 420.421 110.753 420.421 107.591C420.421 104.044 422.173 100.518 425.677 97.0142C432.472 90.2195 440.912 86.8221 450.997 86.8221C457.108 86.8221 462.023 88.2323 465.741 91.0528V85.1554C463.86 82.7623 462.023 81.1598 460.228 80.3478C458.476 79.5359 456.061 79.1726 452.985 79.2581C446.104 79.3863 439.801 80.647 434.075 83.0401C431.511 84.1084 429.011 85.07 426.575 85.9246V81.1811C427.13 80.7111 427.942 80.0059 429.011 79.0658C429.181 78.8521 429.288 78.7239 429.331 78.6812V62.143H416.19V54.4508H480.42V62.143ZM465.741 102.719C465.741 100.839 463.497 99.1509 459.01 97.6552C455.292 96.4159 452.194 95.7963 449.715 95.7963C440.698 95.7963 433.476 99.0441 428.049 105.54C425.87 108.147 424.78 110.283 424.78 111.95C425.677 115.069 429.203 116.629 435.357 116.629C443.305 116.629 450.57 114.642 457.151 110.668C462.878 107.206 465.741 104.557 465.741 102.719Z" fill="#A82323"/>
<path d="M314.742 55.2895C304.608 54.9637 294.523 55.555 284.5 55.501C270.076 55.4232 255.719 54.9003 241.303 55.3448C233.521 55.5847 225.741 55.9845 217.972 56.4908C210.456 56.9806 202.945 57.5983 195.452 58.3455C184.202 58.3458 184.202 58.3458 184.202 58.3458C184.202 58.3458 183.794 55.6448 184.202 55.5263C189.463 54.0002 194.525 52.0831 198.889 48.7915C202.04 46.4148 202.175 45.8952 200.644 42.3376C199.006 38.5334 196.81 35.0417 194.164 31.7977C192.795 30.1186 193.087 29.4467 195.222 28.887C199.322 27.8122 203.494 27.233 207.729 27.1671C213.387 27.079 218.961 27.7575 224.436 29.1155C225.701 29.4294 226.956 29.7809 228.534 30.1994C228.098 29.3754 227.802 28.7942 227.487 28.2226C226.044 25.6079 224.31 23.1735 222.423 20.8295C220.873 18.9032 221.328 17.9732 223.863 17.5518C232.68 16.0864 241.261 17.1043 249.714 19.6013C250.378 19.7975 250.376 19.804 251.251 19.717C251.116 17.6335 250.46 15.6594 249.813 13.6933C248.863 10.8035 247.579 8.04176 246.099 5.35972C245.131 3.60431 245.645 2.78379 247.738 2.71764C255.204 2.48176 262.279 4.14538 269.136 6.74551C282.074 11.6517 292.308 19.8156 300.525 30.3524C301.149 31.1521 301.623 31.2404 302.555 30.8746C312.382 27.0178 322.577 24.825 333.249 24.8402C335.29 24.8431 337.299 25.087 339.283 25.4896C341.397 25.9185 341.742 26.9161 340.298 28.419C337.887 30.9288 335.777 33.6442 333.921 36.5407C333.604 37.0345 333.322 37.5479 332.955 38.1684C334.443 38.6309 335.865 38.5188 337.23 38.734C341.085 39.3423 344.832 40.2943 348.418 41.7672C349.204 42.09 349.864 42.078 350.644 41.7105C358.976 37.7886 367.813 36.0361 377.088 36.256C379.079 36.3032 381.038 36.641 382.965 37.1135C383.561 37.2597 384.217 37.4114 384.368 38.113C384.521 38.8221 383.944 39.171 383.476 39.5471C380.272 42.118 377.697 45.1691 375.708 48.6642C374.585 50.6385 374.696 51.2873 376.296 52.9681C377.218 53.9373 378.274 54.7451 379.435 55.4435C379.91 55.7291 380.487 55.9202 380.777 56.5365C380.252 57.3502 379.214 57.2764 378.292 57.7773C381.93 58.5094 384.776 59.6073 388.224 60.5131C381.338 59.6462 374.422 59.0393 367.503 58.4647C360.704 57.8999 353.908 57.2802 347.101 56.8206C341.158 56.4193 335.2 56.1957 329.248 55.9156C324.453 55.6899 319.656 55.4971 314.742 55.2895ZM252.676 6.82352C254.344 8.77792 255.884 10.8258 257.259 12.9679C264.498 24.2468 269.106 36.38 270.254 49.6112C270.315 50.3204 270.627 50.5758 271.347 50.5445C272.382 50.4995 273.419 50.4708 274.454 50.4898C275.136 50.5024 275.622 50.2599 276.067 49.7823C282.084 43.3316 289.068 38.0191 297.043 33.8943C298.042 33.3778 298.223 32.9474 297.517 32.0299C294.482 28.0882 291.147 24.4118 287.277 21.1816C277.801 13.2744 267.061 7.75491 254.509 5.67087C253.61 5.52161 252.688 5.26351 251.717 5.4774C251.857 6.04018 252.29 6.31881 252.676 6.82352ZM254.726 44.3089C257.83 40.1333 260.351 35.7032 261.387 30.6287C261.616 29.5109 261.406 28.4997 260.358 27.8257C250.556 21.5212 239.752 18.5873 227.884 19.2853C227.119 19.3303 226.363 19.5151 225.405 19.6659C226.503 21.0324 227.505 22.2093 228.429 23.4388C234.565 31.6074 239.345 40.4153 242.262 50.0876C242.481 50.8118 242.823 51.1375 243.644 51.0761C245.17 50.9622 246.701 50.9008 248.231 50.8448C248.833 50.8228 249.215 50.5082 249.589 50.1219C251.353 48.2978 253.099 46.4602 254.726 44.3089ZM207.711 29.3022C204.209 29.3067 200.745 29.5578 197.22 30.5927C197.52 30.8888 197.646 31.043 197.802 31.1629C205.093 36.7762 210.927 43.5209 215.292 51.4028C215.584 51.9306 215.959 52.0754 216.566 52.1089C218.803 52.2323 220.522 51.5975 222.136 49.9488C225.982 46.0208 229.374 41.8612 231.392 36.8098C232.088 35.0698 231.806 34.3344 230.16 33.6948C223.051 30.9321 215.68 29.3196 207.711 29.3022ZM320.735 28.1008C313.571 29.5469 306.653 31.5975 300.276 35.3616C300.583 35.6087 300.666 35.7024 300.772 35.7558C301.136 35.94 301.507 36.1151 301.879 36.2851C309.102 39.5827 315.025 44.3914 319.897 50.3676C320.671 51.3172 321.53 51.4424 322.57 51.412C323.624 51.3813 323.552 50.4468 323.783 49.8523C326.817 42.0419 331.063 34.9019 336.788 28.5657C337.046 28.2798 337.428 28.0432 337.369 27.4712C335.635 27.0571 333.83 26.9357 332.033 26.9276C328.298 26.9107 324.623 27.5079 320.735 28.1008ZM298.925 37.3522C298.22 37.0109 297.641 37.3716 297.062 37.669C291.397 40.5749 286.448 44.3549 282.018 48.7644C281.828 48.9538 281.568 49.1272 281.664 49.6062C293.15 49.6372 304.649 50.2076 316.184 50.7234C311.722 44.7669 306.083 40.312 298.925 37.3522ZM370.618 47.1593C373.173 44.0661 376.181 41.3992 379.369 38.8251C369.562 37.5045 360.506 39.6144 351.61 43.873C352.983 44.9601 354.178 45.8987 355.364 46.8472C357.868 48.8502 360.128 51.0853 362.309 53.3971C363.642 54.8099 365.43 54.6395 366.397 53.0425C367.617 51.0288 368.962 49.0953 370.618 47.1593ZM263.752 35.4788C263.453 34.671 263.358 33.7851 262.71 32.8946C261.135 39.2354 257.784 44.5014 253.463 49.3896C257.912 49.3029 262.148 49.2204 266.488 49.1358C266.059 44.4776 265.111 40.0395 263.752 35.4788ZM236.703 49.8787C237.22 49.8087 237.778 49.9693 238.388 49.549C237.116 45.4955 235.543 41.5362 233.257 37.478C231.464 42.5009 228.456 46.4938 224.872 50.5054C229.012 50.5152 232.743 50.1172 236.703 49.8787ZM357.254 53.0807C358.183 53.0059 357.615 52.6086 357.4 52.3664C355.349 50.0517 353.035 47.993 350.537 46.1176C350.164 45.8378 349.788 45.6792 349.284 45.8471C346.975 46.6166 344.786 47.6268 342.663 48.773C342.362 48.9355 342.133 49.1077 342.242 49.5127C342.595 50.8275 344.299 52.1102 345.738 52.1677C349.532 52.3195 353.307 52.6896 357.254 53.0807ZM326.769 50.3845C326.804 50.8997 327.219 50.856 327.587 50.8826C329.194 50.9988 330.8 51.2067 332.407 51.2041C333.813 51.2017 335.229 51.7259 336.775 51.2266C335.107 47.8847 333.152 44.8475 330.655 41.8499C328.972 44.6537 327.798 47.3952 326.769 50.3845ZM341.935 47.3451C343.817 46.1482 345.856 45.2109 348.098 44.1603C343.322 41.6976 338.502 40.3307 333.298 40.2061C335.781 42.6016 338.265 44.9008 340.434 47.4774C340.976 48.1209 341.349 47.6686 341.935 47.3451Z" fill="#A82323"/>
<path d="M109.362 149.197L109.712 147.483H116.368L125.606 168.428L134.179 147.483H141.37L141.056 149.234L137.756 150.23V170.456L141.259 171.47L140.927 173H130.657L130.952 171.433L134.216 170.437V151.815C132.2 157.617 129.514 164.525 126.159 172.539L123.541 173.277L114.783 151.926C114.992 153.548 115.121 155.908 115.17 159.006C115.231 162.103 115.262 165.92 115.262 170.456L118.821 171.451L118.507 173H109.233L109.565 171.396L112.755 170.437V150.211L109.362 149.197ZM151.392 156.978L151.705 155.484H157.587V165.551C157.587 166.854 157.759 167.917 158.103 168.741C158.459 169.564 158.883 170.154 159.375 170.511C159.633 170.708 159.959 170.806 160.352 170.806C161.102 170.806 161.956 170.708 162.915 170.511C163.886 170.314 164.703 170.075 165.367 169.792V158.25L161.993 156.978L162.325 155.484H168.649V169.46C168.858 169.767 169.165 170.056 169.571 170.327C169.977 170.585 170.394 170.8 170.825 170.972C171.255 171.132 171.593 171.23 171.839 171.267L171.599 172.373C171.169 172.594 170.499 172.828 169.589 173.074C168.68 173.332 167.948 173.461 167.395 173.461C167.297 173.092 167.082 172.582 166.75 171.931C166.43 171.267 166.111 170.788 165.791 170.493C165.029 171.304 164.021 172.004 162.767 172.594C161.526 173.172 160.309 173.461 159.117 173.461C158.244 173.461 157.445 173.252 156.72 172.834C155.995 172.416 155.405 171.722 154.95 170.751C154.507 169.767 154.286 168.477 154.286 166.879V158.25L151.392 156.978ZM190.305 156.664C189.518 156.726 188.707 156.886 187.871 157.144C187.048 157.39 186.365 157.709 185.825 158.103C185.456 158.373 185.272 158.803 185.272 159.393C185.272 160.352 185.88 161.151 187.097 161.79C187.416 161.962 187.742 162.11 188.074 162.233C188.418 162.343 188.898 162.491 189.512 162.675C190.237 162.896 190.821 163.093 191.264 163.265C191.718 163.425 192.155 163.64 192.573 163.91C193.175 164.291 193.648 164.801 193.992 165.441C194.337 166.068 194.509 166.817 194.509 167.69C194.509 168.944 194.22 170.007 193.642 170.88C193.064 171.74 192.278 172.385 191.282 172.816C190.287 173.246 189.162 173.461 187.908 173.461C186.876 173.461 185.984 173.369 185.235 173.184C184.485 173 183.852 172.766 183.336 172.484C182.832 172.201 182.309 171.845 181.768 171.414L182.598 167.377L184.534 167.819L185.216 171.378C186.298 171.378 187.361 171.291 188.406 171.119C189.463 170.947 190.299 170.665 190.913 170.271C191.356 169.989 191.577 169.497 191.577 168.796C191.577 168.329 191.473 167.905 191.264 167.524C191.067 167.143 190.729 166.793 190.25 166.473C189.93 166.264 189.574 166.08 189.18 165.92C188.787 165.76 188.289 165.588 187.687 165.404C187.588 165.379 187.361 165.305 187.005 165.183C186.66 165.06 186.341 164.943 186.046 164.832C185.751 164.709 185.487 164.58 185.253 164.445C184.43 163.99 183.778 163.388 183.299 162.638C182.819 161.888 182.58 161.016 182.58 160.02C182.58 158.901 182.893 157.967 183.52 157.218C184.159 156.468 184.989 155.915 186.009 155.558C187.042 155.202 188.166 155.023 189.383 155.023C190.772 155.023 191.94 155.294 192.886 155.835C193.734 156.351 194.158 156.941 194.158 157.605C194.158 157.961 194.048 158.311 193.827 158.656C193.605 159 193.323 159.276 192.978 159.485C192.647 159.694 192.321 159.799 192.001 159.799C191.583 159.799 191.202 159.713 190.858 159.541L190.305 156.664ZM211.168 151.336C211.033 151.459 210.695 151.52 210.154 151.52C209.675 151.52 209.208 151.471 208.753 151.373C208.298 151.262 208.003 151.115 207.868 150.93C207.72 150.746 207.647 150.408 207.647 149.916C207.647 149.437 207.708 148.958 207.831 148.478C207.954 147.986 208.101 147.685 208.273 147.575C208.458 147.439 208.784 147.372 209.251 147.372C209.718 147.372 210.197 147.439 210.689 147.575C211.18 147.698 211.488 147.839 211.611 147.999C211.746 148.171 211.813 148.478 211.813 148.921C211.813 149.388 211.746 149.873 211.611 150.377C211.488 150.881 211.34 151.201 211.168 151.336ZM208.126 170.677V158.693L205.287 157.273L205.452 156.406L211.426 155.208V170.677L214.468 171.488L214.137 173H205.157L205.434 171.451L208.126 170.677ZM234.373 156.646C233.512 156.658 232.713 156.793 231.976 157.052C231.238 157.31 230.562 157.746 229.948 158.361C229.309 159.024 228.842 159.774 228.547 160.61C228.264 161.434 228.122 162.306 228.122 163.228C228.122 165.305 228.639 167.082 229.671 168.557C230.126 169.233 230.71 169.786 231.423 170.216C232.136 170.634 232.916 170.843 233.764 170.843C234.244 170.843 234.791 170.769 235.405 170.622C236.02 170.462 236.585 170.284 237.102 170.087C237.63 169.878 237.999 169.712 238.208 169.589L238.632 170.216C237.968 171.027 237.089 171.771 235.995 172.447C234.914 173.123 233.777 173.461 232.584 173.461C230.876 173.461 229.432 173.074 228.252 172.299C227.072 171.525 226.187 170.48 225.597 169.165C225.007 167.85 224.712 166.375 224.712 164.74C224.712 162.626 225.123 160.85 225.947 159.412C226.77 157.961 227.883 156.879 229.284 156.167C230.685 155.454 232.259 155.097 234.004 155.097C235.184 155.097 236.155 155.251 236.917 155.558C237.298 155.718 237.612 155.945 237.857 156.24C238.116 156.535 238.245 156.873 238.245 157.254C238.245 157.611 238.134 157.967 237.913 158.324C237.692 158.68 237.409 158.975 237.065 159.209C236.721 159.43 236.389 159.541 236.069 159.541C235.639 159.541 235.252 159.442 234.907 159.246L234.373 156.646ZM291.255 171.175L290.868 173H281.298L281.593 171.414L284.617 170.548L282.405 164.685C279.578 164.857 276.8 164.943 274.071 164.943H273.297L271.398 170.456L275.196 171.47L274.864 173H265.7L266.032 171.248L268.89 170.382L277.205 147.483L279.399 146.837L288.471 170.548L291.255 171.175ZM281.612 162.528L277.537 151.705C277.402 152.541 276.259 156.148 274.108 162.528H281.612ZM310.182 156.646C309.321 156.658 308.523 156.793 307.785 157.052C307.048 157.31 306.371 157.746 305.757 158.361C305.118 159.024 304.651 159.774 304.356 160.61C304.073 161.434 303.932 162.306 303.932 163.228C303.932 165.305 304.448 167.082 305.48 168.557C305.935 169.233 306.519 169.786 307.232 170.216C307.945 170.634 308.725 170.843 309.573 170.843C310.053 170.843 310.6 170.769 311.214 170.622C311.829 170.462 312.394 170.284 312.911 170.087C313.439 169.878 313.808 169.712 314.017 169.589L314.441 170.216C313.777 171.027 312.898 171.771 311.804 172.447C310.723 173.123 309.586 173.461 308.393 173.461C306.685 173.461 305.241 173.074 304.061 172.299C302.881 171.525 301.996 170.48 301.406 169.165C300.816 167.85 300.521 166.375 300.521 164.74C300.521 162.626 300.932 160.85 301.756 159.412C302.579 157.961 303.692 156.879 305.093 156.167C306.494 155.454 308.068 155.097 309.813 155.097C310.993 155.097 311.964 155.251 312.726 155.558C313.107 155.718 313.421 155.945 313.667 156.24C313.925 156.535 314.054 156.873 314.054 157.254C314.054 157.611 313.943 157.967 313.722 158.324C313.501 158.68 313.218 158.975 312.874 159.209C312.53 159.43 312.198 159.541 311.878 159.541C311.448 159.541 311.061 159.442 310.717 159.246L310.182 156.646ZM324.832 168.557C324.832 167.377 325.041 166.467 325.458 165.828C325.876 165.189 326.589 164.66 327.597 164.242C328.31 163.935 329.207 163.708 330.289 163.56C331.383 163.413 332.409 163.339 333.368 163.339C333.872 163.339 334.364 163.357 334.843 163.394V162.398C334.843 161.268 334.714 160.241 334.456 159.319C334.21 158.385 333.718 157.715 332.981 157.31C332.723 157.162 332.379 157.052 331.948 156.978C331.531 156.904 331.088 156.867 330.621 156.867C330.203 156.867 329.791 156.91 329.386 156.996L328.759 160.352C328.415 160.536 328.04 160.628 327.634 160.628C327.315 160.628 326.983 160.536 326.638 160.352C326.307 160.168 326.03 159.922 325.809 159.614C325.588 159.307 325.477 158.981 325.477 158.637C325.477 157.986 325.993 157.371 327.026 156.793C327.64 156.462 328.365 156.16 329.201 155.89C330.049 155.62 330.855 155.411 331.617 155.263C332.391 155.103 332.969 155.023 333.35 155.023C335.046 155.023 336.269 155.521 337.019 156.517C337.769 157.513 338.143 158.865 338.143 160.573V169.46C338.598 169.927 339.084 170.314 339.6 170.622C340.116 170.917 340.694 171.138 341.333 171.285L341.112 172.355C340.424 172.674 339.711 172.926 338.973 173.111C338.248 173.307 337.56 173.424 336.908 173.461C336.711 172.883 336.49 172.367 336.244 171.912C336.011 171.457 335.71 171.009 335.341 170.566C335.071 170.96 334.603 171.39 333.94 171.857C333.276 172.312 332.545 172.693 331.746 173C330.959 173.307 330.24 173.461 329.588 173.461C328.507 173.461 327.61 173.215 326.897 172.723C326.184 172.219 325.661 171.593 325.329 170.843C324.998 170.093 324.832 169.331 324.832 168.557ZM330.142 170.935C330.301 171.009 330.51 171.046 330.768 171.046C331.322 171.046 332.004 170.935 332.815 170.714C333.639 170.48 334.315 170.228 334.843 169.958V164.556C333.626 164.642 332.575 164.795 331.69 165.017C330.805 165.238 330.111 165.478 329.607 165.736C329.103 165.981 328.759 166.209 328.574 166.418C328.341 166.651 328.224 167.057 328.224 167.635C328.224 168.053 328.31 168.495 328.482 168.962C328.667 169.429 328.906 169.847 329.201 170.216C329.496 170.572 329.81 170.812 330.142 170.935ZM366.695 169.46C366.978 169.866 367.451 170.247 368.115 170.603C368.791 170.947 369.381 171.162 369.885 171.248L369.682 172.373C369.252 172.582 368.551 172.816 367.58 173.074C366.621 173.332 365.915 173.461 365.46 173.461C365.325 173.006 365.116 172.514 364.833 171.986C364.55 171.457 364.243 171.003 363.911 170.622C363.346 171.47 362.571 172.158 361.588 172.687C360.617 173.203 359.603 173.461 358.546 173.461C357.267 173.461 356.069 173.172 354.95 172.594C353.844 172.004 352.935 171.076 352.222 169.81C351.521 168.544 351.171 166.94 351.171 164.998C351.171 163.081 351.533 161.366 352.258 159.854C352.984 158.33 353.967 157.144 355.208 156.296C356.45 155.448 357.808 155.023 359.283 155.023C360.008 155.023 360.727 155.134 361.44 155.355C362.166 155.577 362.817 155.902 363.395 156.333V149.253L360.537 147.833L360.703 146.985L366.695 145.86V169.46ZM358.951 170.843C360.353 170.843 361.834 170.536 363.395 169.921V160.979C363.075 160.229 362.614 159.578 362.012 159.024C361.41 158.471 360.734 158.053 359.984 157.771C359.246 157.488 358.503 157.347 357.753 157.347C357.273 157.347 356.843 157.402 356.462 157.513C356.081 157.611 355.78 157.814 355.559 158.121C354.772 159.19 354.379 160.844 354.379 163.081C354.379 164.298 354.557 165.422 354.913 166.455C355.282 167.475 355.737 168.335 356.278 169.036C356.831 169.737 357.384 170.234 357.937 170.529C358.158 170.652 358.337 170.738 358.472 170.788C358.607 170.824 358.767 170.843 358.951 170.843ZM388.554 170.806C389.107 170.806 389.715 170.726 390.379 170.566C391.055 170.406 391.676 170.222 392.241 170.013C392.807 169.792 393.212 169.614 393.458 169.478L393.901 170.124C393.495 170.603 392.942 171.101 392.241 171.617C391.553 172.133 390.779 172.57 389.918 172.926C389.058 173.283 388.21 173.461 387.374 173.461C385.96 173.461 384.688 173.16 383.557 172.558C382.426 171.955 381.523 170.996 380.847 169.681C380.171 168.366 379.833 166.688 379.833 164.648C379.833 162.866 380.183 161.243 380.884 159.78C381.584 158.305 382.568 157.144 383.834 156.296C385.112 155.448 386.563 155.023 388.185 155.023C389.402 155.023 390.447 155.288 391.319 155.816C392.204 156.333 392.874 157.039 393.329 157.937C393.796 158.822 394.03 159.811 394.03 160.905C394.03 161.716 393.901 162.54 393.643 163.376C393.569 163.597 393.477 163.757 393.366 163.855C393.268 163.953 393.108 164.003 392.887 164.003H382.986C383.072 165.183 383.354 166.295 383.834 167.34C384.325 168.372 384.977 169.208 385.788 169.847C386.612 170.486 387.534 170.806 388.554 170.806ZM386.397 157.181C385.45 157.181 384.823 157.334 384.516 157.642C384.172 157.998 383.846 158.619 383.539 159.504C383.232 160.376 383.047 161.415 382.986 162.62L390.969 161.993C390.969 160.973 390.76 160.1 390.342 159.375C389.937 158.649 389.39 158.103 388.701 157.734C388.013 157.365 387.245 157.181 386.397 157.181ZM404.918 157.273L405.084 156.406L410.136 155.3L410.818 158.232C411.875 157.334 413.025 156.584 414.266 155.982C415.52 155.368 416.626 155.06 417.585 155.06C418.47 155.06 419.275 155.312 420 155.816C420.738 156.32 421.303 157.131 421.696 158.25C422.729 157.377 423.909 156.628 425.236 156.001C426.576 155.374 427.719 155.06 428.666 155.06C429.784 155.06 430.675 155.343 431.339 155.908C432.003 156.474 432.488 157.414 432.796 158.729C433.115 160.032 433.275 161.821 433.275 164.095V170.677L436.373 171.451L436.041 173H427.707L428.02 171.378L429.975 170.585V164.168C429.975 162.374 429.809 160.973 429.477 159.965C429.157 158.944 428.727 158.275 428.186 157.955C427.965 157.82 427.768 157.752 427.596 157.752C427.191 157.752 426.386 157.881 425.181 158.139C423.976 158.385 422.882 158.674 421.899 159.006C422.022 159.461 422.096 160.118 422.12 160.979C422.157 161.827 422.176 162.896 422.176 164.187V170.677L425.292 171.488L424.96 173H416.626L416.939 171.396L418.875 170.585V163.763C418.875 162.042 418.697 160.708 418.341 159.762C417.997 158.815 417.542 158.189 416.976 157.881C416.804 157.795 416.638 157.752 416.479 157.752C416.011 157.752 415.256 157.875 414.211 158.121C413.166 158.367 412.09 158.668 410.984 159.024C411.046 159.455 411.076 159.891 411.076 160.333L411.058 170.677L414.137 171.488L413.86 173H404.826L405.121 171.396L407.758 170.493V158.711L404.918 157.273ZM463.836 155.484L463.597 156.738L461.642 157.789L457.254 170.013C456.357 172.521 455.552 174.561 454.839 176.134C454.126 177.708 453.395 178.974 452.645 179.932C451.907 180.904 451.102 181.567 450.229 181.924C449.725 182.12 449.203 182.219 448.662 182.219C448.109 182.219 447.556 182.145 447.003 181.997C446.45 181.85 445.983 181.61 445.602 181.278C445.233 180.947 445.048 180.529 445.048 180.025C445.048 179.668 445.165 179.299 445.399 178.918C445.645 178.537 445.946 178.218 446.302 177.96C446.659 177.702 446.991 177.572 447.298 177.572C447.507 177.572 447.734 177.597 447.98 177.646C448.226 177.708 448.429 177.794 448.588 177.904L449.142 180.817C449.424 180.645 449.836 180.191 450.377 179.453C450.93 178.728 451.514 177.824 452.128 176.743C452.755 175.661 453.333 174.543 453.862 173.387L446.874 157.881L444.237 156.867L444.495 155.484H453.29L453.05 156.793L450.543 157.771L455.373 169.22L459.282 157.808L456.627 156.867L456.867 155.484H463.836Z" fill="#3D45AA"/>
<path d="M23.4316 172.569C21.2331 172.333 19.1131 172.29 17.0435 171.857C14.9728 171.423 14.6344 170.896 15.3243 169.094C16.638 165.662 19.2564 163.341 22.9 161.888C23.4944 161.651 24.0909 161.418 24.6354 161.204C24.7633 160.78 24.491 160.567 24.3168 160.332C21.2235 156.153 22.3203 151.912 27.1757 149.408C28.2799 148.839 29.4379 148.353 30.5809 147.846C31.2526 147.548 31.3424 147.189 30.7931 146.724C29.138 145.322 27.9431 143.669 27.3725 141.674C27.2592 141.278 26.9193 141.119 26.5359 140.97C25.564 140.592 25.0916 139.985 25.5377 139.017C25.6407 138.794 25.6422 138.585 25.5819 138.351C25.4077 137.672 25.7467 137.224 26.4872 137.17C27.1509 137.121 27.3347 136.785 27.4724 136.308C27.6188 135.802 27.7655 135.289 27.9865 134.807C28.357 133.999 28.9785 133.217 27.5845 132.64C27.1806 132.472 27.0421 131.88 27.3687 131.597C28.1227 130.943 27.6515 129.586 29.0095 129.335C29.4003 129.263 29.6715 129.551 29.9562 129.757C30.388 130.069 30.7665 129.922 30.8953 129.513C31.3233 128.154 32.1662 127.084 33.4189 126.238C36.5495 124.122 38.3866 121.117 40.3132 118.161C43.8126 112.791 47.3307 107.43 50.9288 102.114C51.8603 100.738 52.2173 99.4991 51.3809 97.9919C50.402 96.2275 51.166 94.615 52.213 93.0874C52.4721 92.7093 52.9052 92.5132 53.3639 92.3775C54.2216 92.1237 55.155 92.1549 55.9794 91.7298C56.423 91.501 56.8806 91.8383 57.2285 92.0374C57.7238 91.9482 57.8627 91.6162 58.0397 91.3459C62.236 84.9385 66.4357 78.5329 70.6098 72.1138C73.625 67.4769 76.6092 62.8237 79.5944 58.1712C80.0732 57.4249 80.7381 56.9213 81.7007 57.0101C82.9009 57.1209 84.1028 57.0829 85.2982 57.1658C87.0005 57.2839 87.6392 58.0647 87.2764 59.5456C87.1374 60.1133 86.9689 60.7178 86.6219 61.1922C86.0681 61.9492 85.2144 62.577 86.1691 63.5594C86.3335 63.7286 86.227 64.0208 86.0511 64.2C85.6587 64.5995 85.4365 65.0612 85.2326 65.5591C85.0312 66.0509 84.5723 66.3657 83.9281 66.1753C83.4844 66.0442 83.229 66.2131 83.0235 66.519C82.791 66.8649 82.5793 67.2262 82.9609 67.5958C83.5357 68.1525 83.3739 68.6212 82.8455 69.1338C82.5867 69.3849 82.4925 69.7697 82.3069 70.086C82.0039 70.6022 81.599 71.0909 80.8806 70.9359C80.261 70.8022 80.0301 71.0537 79.7728 71.4518C74.5203 79.579 69.2627 87.7035 64.0031 95.827C62.0066 98.9106 60.1297 102.065 57.9605 105.048C56.2974 107.334 56.2706 109.788 56.3305 112.305C56.3569 113.414 56.5912 114.518 56.6709 115.628C56.7209 116.323 56.978 116.541 57.7757 116.358C59.4684 115.969 61.1941 115.696 62.8853 115.304C64.0117 115.042 65.0891 114.608 66.0615 114.033C67.0986 113.42 68.2156 113.106 69.4318 112.986C69.9252 112.938 70.6112 113.096 70.555 112.279C70.4949 111.404 69.9174 110.682 69.1641 110.689C68.5846 110.694 68.0028 110.763 67.4276 110.839C65.4417 111.1 64.7623 110.614 64.4265 108.848C64.2573 107.958 63.7417 107.136 63.6177 106.22C63.6046 106.124 63.4317 106.036 63.3197 105.96C62.044 105.094 62.026 104.955 62.9932 103.798C63.3648 103.353 63.7415 102.908 64.062 102.434C64.3252 102.044 64.58 101.605 64.3829 101.133C63.8648 99.8937 64.1683 98.7028 64.5672 97.5059C64.6495 97.2592 64.7468 96.9753 64.6877 96.7387C64.3197 95.2653 65.163 94.2268 66.3586 93.507C70.895 90.7761 76.9668 90.5292 81.0381 94.4284C81.4095 94.7841 81.7414 95.1854 82.0201 95.6041C82.5031 96.3298 82.9018 97.0448 83.9298 97.3617C84.5382 97.5493 84.9557 98.1195 84.4267 98.8032C84.1863 99.1139 84.3367 99.4062 84.508 99.7194C85.6429 101.795 85.9329 103.951 85.2096 106.193C84.9015 107.148 84.7615 108.081 85.4601 108.981C85.6924 109.28 85.6497 109.695 85.5057 110.032C85.3001 110.513 85.3908 110.923 85.725 111.357C86.1292 111.134 86.4905 110.482 87.0384 111.09C87.4978 111.6 87.5801 112.324 87.0376 112.701C85.9285 113.473 86.5071 114.012 87.0848 114.705C89.663 117.797 91.5095 121.177 91.771 125.103C91.8771 126.696 91.7381 128.288 90.6892 129.711C90.6208 128.373 90.356 127.092 89.6604 125.89C90.058 127.817 88.9803 129.76 89.9186 131.711C89.2414 131.824 89.1783 131.28 88.8068 131.091C88.2263 131.58 88.2334 132.289 88.0756 133.176C87.2478 132.24 87.1219 131.243 86.2387 130.396C86.0889 132.128 85.5405 133.688 87.0153 135.054C87.5705 135.568 87.6368 136.298 87.305 136.902C86.6873 138.024 87.1437 138.94 87.8201 139.822C88.3035 140.452 88.7078 141.08 88.8212 141.857C88.9109 142.472 89.3133 142.912 89.9266 143.238C91.2372 143.934 91.7259 144.834 91.1751 146.033C90.731 146.999 91.0657 147.743 91.4962 148.539C92.3222 150.068 93.3891 151.494 93.9271 153.145C95.1706 156.963 94.1575 159.417 90.4566 161.537C90.2449 161.659 90.0103 161.754 89.8706 162.083C91.9396 163 93.871 164.096 95.672 165.366C97.4838 166.644 99.177 168.037 100.529 169.727C101.32 170.717 101.125 171.234 99.8705 171.631C98.2335 172.149 96.5078 172.198 94.8109 172.35C92.5283 172.554 90.2347 172.708 87.9422 172.764C69.9321 173.204 51.9182 172.885 33.906 172.932C30.4491 172.941 26.9914 172.701 23.4316 172.569ZM59.6057 129.656C59.9534 129.864 60.1746 130.261 60.7188 130.25C61.3147 129.525 61.927 128.798 62.5128 128.054C62.63 127.905 62.7408 127.669 62.6935 127.512C62.3593 126.406 62.7359 125.385 63.0859 124.353C63.2848 123.767 63.0001 123.471 62.3379 123.472C61.9758 123.472 61.6127 123.505 61.2519 123.539C59.4453 123.709 57.635 123.918 55.8192 123.819C54.7019 123.758 53.5933 123.536 52.4872 123.354C52.0839 123.287 51.7575 123.304 51.5569 123.654C51.3634 123.991 51.618 124.197 51.8628 124.406C52.5194 124.969 53.1021 125.592 53.7973 126.127C55.5488 127.475 57.5634 128.46 59.6057 129.656ZM58.0605 143.419C57.6873 144.075 57.3142 144.73 56.9292 145.406C58.1383 145.612 59.6843 145.109 60.1857 144.356C60.6425 143.669 61.2591 143.216 62.1476 143.082C62.5048 143.028 62.823 142.957 63.0959 142.676C64.3768 141.355 65.0445 139.756 65.6925 138.151C65.8454 137.772 65.9972 137.269 65.5479 136.963C65.0924 136.653 64.7507 137.092 64.387 137.263C62.9216 137.954 61.5988 138.957 59.775 138.828C59.2835 138.793 59.1311 139.186 59.0893 139.572C58.9514 140.846 58.6481 142.086 58.0605 143.419Z" fill="#335599"/>
</svg>
