<svg width="431" height="326" viewBox="0 0 431 326" fill="none" xmlns="http://www.w3.org/2000/svg">
<path opacity="0.3" d="M124.026 226.006C86.5975 234.228 50.13 224.83 37.4958 207.167C20.128 184.489 28.9976 158.318 53.9416 141.483C67.3876 132.474 76.7468 125.119 77.0947 113.688C77.9812 91.5414 88.7577 72.5208 108.239 60.6714C127.72 48.8221 153.079 46.2789 168.962 54.9009C181.944 61.1324 184.995 72.5736 194.885 75.6996C207.486 80.501 228.111 72.9421 250.452 71.8188C283.678 69.0612 312.776 76.2941 327.856 90.3915C349.617 108.32 349.186 136.422 361.249 151.939C378.044 172.472 405.501 177.795 415.615 194.497C428.821 214.304 416.859 237.37 393.101 250.159C369.342 262.948 337.492 262.376 315.764 257.309C294.036 252.242 281.17 242.2 259.898 243.088C232.898 243.721 203.718 253.159 179.354 250.942C158.579 249.45 155.147 236.579 124.026 226.006Z" fill="#D4A84B"/>
<path d="M70.0894 192.692C68.6579 192.541 67.2774 192.514 65.9298 192.238C64.5814 191.961 64.3611 191.624 64.8103 190.475C65.6657 188.286 67.3707 186.805 69.7433 185.878C70.1304 185.727 70.5188 185.578 70.8733 185.441C70.9566 185.171 70.7793 185.036 70.6658 184.885C68.6517 182.219 69.3658 179.514 72.5275 177.917C73.2465 177.554 74.0006 177.244 74.7448 176.92C75.1822 176.73 75.2407 176.501 74.883 176.204C73.8052 175.31 73.0272 174.255 72.6557 172.983C72.5818 172.73 72.3605 172.629 72.1109 172.534C71.478 172.293 71.1704 171.906 71.4609 171.288C71.528 171.146 71.5289 171.013 71.4897 170.863C71.3762 170.43 71.597 170.144 72.0791 170.11C72.5113 170.079 72.631 169.864 72.7207 169.56C72.816 169.237 72.9115 168.91 73.0554 168.603C73.2967 168.087 73.7014 167.588 72.7937 167.22C72.5307 167.113 72.4405 166.735 72.6531 166.555C73.1441 166.137 72.8373 165.272 73.7216 165.112C73.9761 165.066 74.1527 165.25 74.338 165.381C74.6192 165.58 74.8657 165.486 74.9496 165.225C75.2283 164.358 75.7771 163.676 76.5928 163.136C78.6313 161.786 79.8276 159.869 81.0821 157.983C83.3608 154.558 85.6517 151.138 87.9946 147.746C88.6012 146.868 88.8336 146.078 88.289 145.117C87.6516 143.991 88.1491 142.963 88.8308 141.988C88.9996 141.747 89.2816 141.622 89.5803 141.535C90.1388 141.373 90.7466 141.393 91.2834 141.122C91.5722 140.976 91.8702 141.191 92.0968 141.318C92.4192 141.261 92.5097 141.05 92.625 140.877C95.3574 136.79 98.0922 132.703 100.81 128.608C102.774 125.65 104.717 122.682 106.661 119.714C106.972 119.238 107.405 118.917 108.032 118.973C108.814 119.044 109.596 119.02 110.375 119.073C111.483 119.148 111.899 119.646 111.663 120.591C111.572 120.953 111.463 121.339 111.237 121.641C110.876 122.124 110.32 122.525 110.942 123.151C111.049 123.259 110.98 123.446 110.865 123.56C110.609 123.815 110.465 124.109 110.332 124.427C110.201 124.741 109.902 124.941 109.483 124.82C109.194 124.736 109.027 124.844 108.893 125.039C108.742 125.26 108.604 125.49 108.853 125.726C109.227 126.081 109.122 126.38 108.778 126.707C108.609 126.868 108.548 127.113 108.427 127.315C108.23 127.644 107.966 127.956 107.498 127.857C107.095 127.772 106.944 127.932 106.777 128.186C103.357 133.371 99.933 138.554 96.5081 143.736C95.208 145.703 93.9859 147.715 92.5734 149.618C91.4905 151.077 91.473 152.642 91.512 154.248C91.5292 154.955 91.6818 155.659 91.7337 156.367C91.7662 156.811 91.9337 156.95 92.4531 156.833C93.5553 156.585 94.679 156.411 95.7802 156.16C96.5137 155.994 97.2153 155.717 97.8484 155.35C98.5238 154.959 99.2511 154.758 100.043 154.682C100.364 154.651 100.811 154.752 100.774 154.231C100.735 153.673 100.359 153.212 99.8688 153.217C99.4914 153.22 99.1125 153.264 98.7381 153.312C97.4449 153.479 97.0025 153.169 96.7838 152.042C96.6736 151.474 96.3379 150.95 96.2572 150.366C96.2487 150.304 96.1361 150.248 96.0631 150.2C95.2324 149.647 95.2207 149.559 95.8505 148.821C96.0925 148.537 96.3378 148.253 96.5465 147.95C96.7179 147.702 96.8838 147.422 96.7554 147.121C96.4181 146.33 96.6157 145.57 96.8755 144.807C96.929 144.649 96.9924 144.468 96.9539 144.317C96.7143 143.377 97.2634 142.715 98.0419 142.256C100.996 140.514 104.95 140.356 107.601 142.844C107.842 143.07 108.059 143.326 108.24 143.594C108.555 144.057 108.814 144.513 109.484 144.715C109.88 144.834 110.152 145.198 109.807 145.634C109.651 145.833 109.749 146.019 109.86 146.219C110.599 147.543 110.788 148.918 110.317 150.349C110.116 150.958 110.025 151.553 110.48 152.127C110.631 152.318 110.604 152.583 110.51 152.798C110.376 153.105 110.435 153.366 110.653 153.643C110.916 153.501 111.151 153.085 111.508 153.473C111.807 153.798 111.861 154.259 111.507 154.5C110.785 154.993 111.162 155.336 111.538 155.778C113.217 157.751 114.419 159.907 114.59 162.412C114.659 163.428 114.568 164.444 113.885 165.352C113.841 164.498 113.668 163.68 113.215 162.914C113.474 164.143 112.772 165.383 113.383 166.627C112.942 166.699 112.901 166.352 112.659 166.232C112.281 166.544 112.286 166.996 112.183 167.562C111.644 166.965 111.562 166.328 110.987 165.788C110.89 166.894 110.532 167.888 111.493 168.76C111.854 169.088 111.898 169.554 111.681 169.938C111.279 170.655 111.576 171.239 112.017 171.801C112.332 172.203 112.595 172.604 112.669 173.1C112.727 173.492 112.989 173.773 113.389 173.981C114.242 174.425 114.56 174.999 114.202 175.764C113.912 176.38 114.13 176.854 114.411 177.363C114.948 178.338 115.643 179.247 115.994 180.301C116.803 182.736 116.144 184.302 113.734 185.654C113.596 185.732 113.443 185.793 113.352 186.002C114.699 186.587 115.957 187.286 117.13 188.097C118.309 188.912 119.412 189.8 120.292 190.879C120.807 191.51 120.68 191.84 119.864 192.093C118.798 192.424 117.674 192.455 116.569 192.552C115.083 192.682 113.589 192.781 112.096 192.816C100.369 193.097 88.6389 192.893 76.91 192.923C74.659 192.929 72.4075 192.776 70.0894 192.692ZM93.6447 165.317C93.8711 165.449 94.0151 165.703 94.3695 165.695C94.7575 165.233 95.1562 164.769 95.5377 164.294C95.614 164.199 95.6861 164.049 95.6553 163.949C95.4378 163.243 95.683 162.592 95.9109 161.933C96.0404 161.559 95.855 161.371 95.4238 161.371C95.188 161.371 94.9516 161.393 94.7166 161.414C93.5402 161.523 92.3614 161.656 91.1791 161.592C90.4515 161.554 89.7296 161.412 89.0094 161.296C88.7468 161.254 88.5342 161.264 88.4036 161.487C88.2776 161.702 88.4434 161.834 88.6028 161.967C89.0303 162.326 89.4098 162.724 89.8625 163.065C91.003 163.925 92.3148 164.553 93.6447 165.317ZM92.6385 174.096C92.3955 174.514 92.1525 174.933 91.9018 175.364C92.6892 175.495 93.6959 175.175 94.0224 174.694C94.3198 174.255 94.7213 173.967 95.2999 173.881C95.5324 173.847 95.7397 173.801 95.9174 173.622C96.7514 172.78 97.1862 171.759 97.6082 170.735C97.7077 170.494 97.8066 170.173 97.514 169.978C97.2174 169.78 96.9949 170.06 96.7581 170.169C95.8039 170.61 94.9425 171.249 93.7549 171.167C93.4349 171.145 93.3357 171.396 93.3085 171.642C93.2186 172.455 93.0211 173.246 92.6385 174.096Z" fill="#325598"/>
<path d="M160.507 145.519H155.712V162.191C153.982 161.164 151.49 160.285 148.234 159.551C145.185 158.848 142.545 158.496 140.317 158.496C134.95 158.496 130.449 159.449 126.812 161.355C124.76 162.44 123.733 163.862 123.733 165.622C123.733 167.968 124.965 169.141 127.428 169.141C128.924 169.141 130.874 168.701 133.279 167.821C134.833 167.264 136.827 166.56 139.261 165.71C140.287 165.358 142.105 165.182 144.715 165.182C149.789 165.182 153.572 166.751 156.064 169.889C157.267 171.384 157.868 173.144 157.868 175.167C157.868 179.83 154.935 183.496 149.07 186.164C146.636 187.279 144.32 187.909 142.12 188.056C144.232 190.167 146.24 191.223 148.147 191.223C148.762 191.223 149.422 191.135 150.126 190.959L154.569 198.217C153.66 199.009 151.798 199.405 148.982 199.405C146.695 199.405 144.759 198.628 143.176 197.073C142.325 196.223 141.123 194.449 139.569 191.751C138.249 189.434 137.15 188.261 136.27 188.232C130.845 188.085 126.666 187.103 123.733 185.285C121.886 184.141 120.962 182.572 120.962 180.578C120.962 178.114 122.428 176.883 125.361 176.883C126.446 176.883 128.704 177.733 132.135 179.434C135.595 181.106 138.44 181.941 140.669 181.941C145.126 181.941 149.305 180.886 153.205 178.774C155.111 177.748 156.064 176.487 156.064 174.991C156.064 172.763 154.305 171.648 150.786 171.648C149.701 171.648 146.196 172.44 140.273 174.024C136.783 174.962 134.642 175.431 133.85 175.431C129.188 175.431 125.346 173.232 122.326 168.833C120.859 166.722 120.126 164.449 120.126 162.015C120.097 157.059 123.484 153.716 130.287 151.986C133.073 151.282 135.698 150.93 138.161 150.93C140.976 150.93 144.965 151.619 150.126 152.997V145.519H115.111V140.241H160.507V145.519ZM201.064 145.519H172.208V156.868C173.938 155.871 176.768 154.566 180.698 152.953C182.311 152.513 184.261 152.293 186.548 152.293C189.686 152.293 192.486 153.159 194.95 154.889C197.706 156.795 199.085 159.258 199.085 162.279C199.085 166.355 196.753 169.317 192.091 171.164C190.155 171.927 188.484 172.308 187.076 172.308L197.281 184.713L191.695 188.76L175.991 170.109L178.894 164.082C180.448 164.522 182.076 164.742 183.777 164.742C186.27 164.742 188.308 164.156 189.891 162.983C191.68 161.692 192.574 159.845 192.574 157.44C192.574 155.094 190.903 153.921 187.56 153.921C185.214 153.921 182.721 155.05 180.082 157.308C178.205 158.921 176.489 160.871 174.935 163.159C173.058 165.915 172.12 168.276 172.12 170.241V188.672L164.554 185.285V145.519H158.968V140.241H164.29C164.29 131.824 162.765 124.83 159.715 119.258C159.129 118.173 158 116.546 156.328 114.376C154.745 112.294 153.645 110.637 153.029 109.405H161.959C163.689 111.018 165.478 113.672 167.325 117.367C170.463 123.643 172.032 131.267 172.032 140.241H201.064V145.519ZM243.513 145.519H214.217V152.557C214.334 152.557 214.451 152.616 214.568 152.733C214.686 152.851 214.788 152.909 214.876 152.909C214.642 152.909 214.51 152.895 214.481 152.865C214.481 152.719 216.665 152.249 221.035 151.458C222.648 151.164 224.246 151.018 225.829 151.018C232.428 151.018 236.665 152.865 238.542 156.56C239.803 159.024 240.433 163.994 240.433 171.472V188.408C239.818 188.173 237.486 187.22 233.439 185.548C233.439 184.61 233.249 184.009 232.868 183.745C231.313 184.654 230.038 185.343 229.041 185.812C225.873 187.308 222.193 188.056 218 188.056C212.222 188.056 207.765 186.238 204.627 182.601C203.102 180.842 202.34 178.877 202.34 176.707C202.34 174.273 203.542 171.853 205.947 169.449C210.61 164.786 216.401 162.455 223.322 162.455C227.516 162.455 230.888 163.422 233.439 165.358V161.311C232.149 159.669 230.888 158.569 229.656 158.012C228.454 157.455 226.797 157.205 224.686 157.264C219.964 157.352 215.639 158.217 211.709 159.859C209.95 160.593 208.234 161.252 206.563 161.839V158.584C206.944 158.261 207.501 157.777 208.234 157.132C208.352 156.986 208.425 156.898 208.454 156.868V145.519H199.437V140.241H243.513V145.519ZM233.439 173.364C233.439 172.073 231.9 170.915 228.821 169.889C226.269 169.038 224.143 168.613 222.442 168.613C216.255 168.613 211.299 170.842 207.574 175.299C206.079 177.088 205.331 178.554 205.331 179.698C205.947 181.839 208.366 182.909 212.589 182.909C218.044 182.909 223.029 181.546 227.545 178.818C231.475 176.443 233.439 174.625 233.439 173.364ZM290.228 145.519H242.941V140.241H290.228V145.519ZM280.771 164.83C280.771 157.792 277.442 154.273 270.785 154.273C265.859 154.273 261.738 156.854 258.425 162.015C255.492 166.59 254.026 171.458 254.026 176.619V189.419L246.812 185.636V152.557H254.378V157.792L258.293 154.845C261.753 152.235 265.404 150.93 269.246 150.93C274.466 150.93 278.791 152.953 282.222 157C285.448 160.812 287.061 165.373 287.061 170.68C287.061 177.337 284.246 183.73 278.615 189.859L270.125 184.537C272.765 181.927 275.008 179.522 276.856 177.323C279.466 174.214 280.771 170.05 280.771 164.83ZM340.198 145.519H334.436L334.348 188.496L326.342 185.065V178.774C321.591 184.903 316.929 187.968 312.354 187.968C309.451 187.968 306.284 186.751 302.853 184.317C299.92 182.235 297.486 179.801 295.551 177.015C293.263 173.73 292.134 170.534 292.163 167.425C292.193 164.581 293.762 161.282 296.87 157.528C300.36 153.305 304.568 151.194 309.495 151.194C312.633 151.194 315.785 152.528 318.952 155.197C319.92 155.988 322.383 158.54 326.342 162.851V145.519H288.688V140.241H326.342C326.342 134.17 325.829 129.42 324.803 125.989C323.278 120.886 319.876 114.816 314.597 107.778C314.48 107.719 314.421 107.484 314.421 107.074C314.421 106.722 314.509 106.487 314.685 106.37H323.087C330.653 114.728 334.436 126.018 334.436 140.241H340.198V145.519ZM324.231 165.534C324.231 163.246 322.984 161.282 320.492 159.639C318.263 158.173 315.946 157.44 313.542 157.44C311.782 157.44 309.583 158.261 306.943 159.903C301.196 163.481 298.322 167.704 298.322 172.572C298.322 175.241 299.04 177.557 300.477 179.522C302.061 181.721 304.128 182.821 306.68 182.821C309.319 182.821 312.134 181.619 315.125 179.214C317.207 177.543 319.143 175.49 320.932 173.056C323.131 170.065 324.231 167.557 324.231 165.534ZM382.515 145.519H353.219V152.557C353.336 152.557 353.453 152.616 353.571 152.733C353.688 152.851 353.791 152.909 353.879 152.909C353.644 152.909 353.512 152.895 353.483 152.865C353.483 152.719 355.668 152.249 360.037 151.458C361.65 151.164 363.248 151.018 364.832 151.018C371.43 151.018 375.667 152.865 377.544 156.56C378.805 159.024 379.436 163.994 379.436 171.472V188.408C378.82 188.173 376.489 187.22 372.442 185.548C372.442 184.61 372.251 184.009 371.87 183.745C370.316 184.654 369.04 185.343 368.043 185.812C364.876 187.308 361.195 188.056 357.002 188.056C351.225 188.056 346.767 186.238 343.629 182.601C342.105 180.842 341.342 178.877 341.342 176.707C341.342 174.273 342.544 171.853 344.949 169.449C349.612 164.786 355.404 162.455 362.324 162.455C366.518 162.455 369.89 163.422 372.442 165.358V161.311C371.151 159.669 369.89 158.569 368.659 158.012C367.456 157.455 365.799 157.205 363.688 157.264C358.967 157.352 354.641 158.217 350.712 159.859C348.952 160.593 347.237 161.252 345.565 161.839V158.584C345.946 158.261 346.503 157.777 347.237 157.132C347.354 156.986 347.427 156.898 347.456 156.868V145.519H338.439V140.241H382.515V145.519ZM372.442 173.364C372.442 172.073 370.902 170.915 367.823 169.889C365.272 169.038 363.146 168.613 361.445 168.613C355.257 168.613 350.301 170.842 346.577 175.299C345.081 177.088 344.333 178.554 344.333 179.698C344.949 181.839 347.368 182.909 351.591 182.909C357.046 182.909 362.031 181.546 366.547 178.818C370.477 176.443 372.442 174.625 372.442 173.364Z" fill="#A82323"/>
<path d="M55.9819 204.426L56.3136 202.802H62.617L71.3649 222.637L79.4843 202.802H86.294L85.9972 204.461L82.8717 205.404V224.558L86.1893 225.519L85.875 226.968H76.1492L76.4286 225.484L79.5192 224.541V206.905C77.6101 212.4 75.0667 218.942 71.8888 226.531L69.4093 227.23L61.1154 207.01C61.3133 208.546 61.4355 210.781 61.4821 213.715C61.5403 216.648 61.5694 220.263 61.5694 224.558L64.9393 225.501L64.6425 226.968H55.8596L56.1739 225.449L59.1947 224.541V205.386L55.9819 204.426ZM92.9243 211.794L93.2211 210.38H98.7912V219.914C98.7912 221.147 98.9542 222.154 99.2801 222.934C99.6177 223.714 100.019 224.273 100.485 224.611C100.729 224.797 101.038 224.89 101.41 224.89C102.12 224.89 102.929 224.797 103.837 224.611C104.757 224.424 105.531 224.197 106.16 223.93V212.999L102.964 211.794L103.279 210.38H109.268V223.615C109.466 223.906 109.757 224.18 110.141 224.436C110.525 224.68 110.921 224.884 111.328 225.047C111.736 225.198 112.056 225.292 112.288 225.326L112.061 226.374C111.654 226.584 111.02 226.805 110.158 227.038C109.297 227.282 108.604 227.404 108.08 227.404C107.987 227.055 107.784 226.572 107.469 225.955C107.167 225.326 106.864 224.872 106.561 224.593C105.84 225.361 104.885 226.025 103.698 226.584C102.522 227.131 101.37 227.404 100.24 227.404C99.414 227.404 98.6573 227.206 97.9705 226.811C97.2837 226.415 96.725 225.757 96.2943 224.838C95.8752 223.906 95.6657 222.684 95.6657 221.171V212.999L92.9243 211.794ZM126.916 211.497C126.171 211.556 125.403 211.707 124.611 211.951C123.831 212.184 123.185 212.487 122.673 212.859C122.324 213.115 122.149 213.523 122.149 214.082C122.149 214.99 122.725 215.746 123.878 216.352C124.18 216.514 124.489 216.654 124.803 216.771C125.129 216.875 125.583 217.015 126.165 217.19C126.852 217.399 127.405 217.585 127.824 217.748C128.255 217.9 128.668 218.103 129.064 218.36C129.634 218.72 130.082 219.203 130.408 219.809C130.734 220.402 130.897 221.113 130.897 221.939C130.897 223.126 130.623 224.133 130.076 224.96C129.529 225.775 128.784 226.386 127.841 226.793C126.898 227.201 125.833 227.404 124.646 227.404C123.668 227.404 122.824 227.317 122.114 227.142C121.404 226.968 120.805 226.747 120.316 226.479C119.838 226.211 119.344 225.874 118.831 225.466L119.617 221.642L121.451 222.061L122.097 225.431C123.121 225.431 124.128 225.35 125.117 225.187C126.118 225.024 126.91 224.756 127.492 224.384C127.911 224.116 128.121 223.65 128.121 222.987C128.121 222.544 128.022 222.143 127.824 221.782C127.638 221.421 127.317 221.089 126.863 220.787C126.561 220.589 126.223 220.414 125.851 220.263C125.478 220.111 125.007 219.948 124.436 219.774C124.343 219.751 124.128 219.681 123.79 219.564C123.464 219.448 123.162 219.337 122.882 219.233C122.603 219.116 122.353 218.994 122.132 218.866C121.352 218.435 120.735 217.865 120.281 217.155C119.827 216.445 119.6 215.618 119.6 214.675C119.6 213.616 119.897 212.731 120.49 212.021C121.096 211.311 121.881 210.787 122.847 210.45C123.825 210.112 124.89 209.943 126.043 209.943C127.358 209.943 128.464 210.199 129.36 210.712C130.164 211.201 130.565 211.759 130.565 212.388C130.565 212.725 130.46 213.057 130.251 213.383C130.041 213.709 129.774 213.971 129.448 214.169C129.133 214.367 128.825 214.466 128.522 214.466C128.126 214.466 127.766 214.384 127.44 214.221L126.916 211.497ZM143.813 206.451C143.685 206.568 143.365 206.626 142.853 206.626C142.399 206.626 141.956 206.579 141.526 206.486C141.095 206.381 140.816 206.242 140.688 206.067C140.548 205.892 140.478 205.572 140.478 205.107C140.478 204.653 140.536 204.199 140.653 203.745C140.769 203.279 140.909 202.994 141.072 202.889C141.246 202.761 141.555 202.697 141.997 202.697C142.44 202.697 142.894 202.761 143.359 202.889C143.825 203.006 144.116 203.139 144.232 203.291C144.36 203.454 144.424 203.745 144.424 204.164C144.424 204.606 144.36 205.066 144.232 205.543C144.116 206.02 143.976 206.323 143.813 206.451ZM140.932 224.768V213.418L138.243 212.074L138.4 211.253L144.058 210.118V224.768L146.939 225.536L146.624 226.968H138.121L138.383 225.501L140.932 224.768ZM162.928 211.48C162.113 211.492 161.357 211.62 160.658 211.864C159.96 212.109 159.319 212.522 158.737 213.104C158.132 213.732 157.69 214.442 157.41 215.234C157.143 216.014 157.009 216.84 157.009 217.713C157.009 219.681 157.498 221.363 158.475 222.76C158.906 223.4 159.459 223.924 160.134 224.331C160.809 224.727 161.549 224.925 162.352 224.925C162.806 224.925 163.324 224.855 163.906 224.715C164.488 224.564 165.023 224.395 165.512 224.209C166.013 224.011 166.362 223.854 166.56 223.738L166.961 224.331C166.333 225.099 165.501 225.804 164.465 226.444C163.44 227.084 162.363 227.404 161.234 227.404C159.616 227.404 158.248 227.038 157.131 226.304C156.013 225.571 155.175 224.581 154.617 223.336C154.058 222.09 153.778 220.693 153.778 219.145C153.778 217.143 154.168 215.461 154.948 214.099C155.728 212.725 156.782 211.701 158.109 211.026C159.436 210.351 160.926 210.013 162.579 210.013C163.696 210.013 164.616 210.159 165.338 210.45C165.698 210.601 165.995 210.816 166.228 211.096C166.473 211.375 166.595 211.695 166.595 212.056C166.595 212.394 166.49 212.731 166.28 213.069C166.071 213.406 165.803 213.686 165.477 213.907C165.151 214.117 164.837 214.221 164.534 214.221C164.127 214.221 163.76 214.128 163.434 213.942L162.928 211.48ZM211.075 225.239L210.709 226.968H201.647L201.926 225.466L204.79 224.645L202.694 219.093C200.017 219.256 197.386 219.337 194.802 219.337H194.069L192.27 224.558L195.867 225.519L195.553 226.968H186.875L187.189 225.309L189.895 224.488L197.77 202.802L199.848 202.191L208.439 224.645L211.075 225.239ZM201.943 217.05L198.085 206.8C197.956 207.592 196.874 211.008 194.837 217.05H201.943ZM226.139 211.48C225.325 211.492 224.568 211.62 223.869 211.864C223.171 212.109 222.531 212.522 221.949 213.104C221.343 213.732 220.901 214.442 220.622 215.234C220.354 216.014 220.22 216.84 220.22 217.713C220.22 219.681 220.709 221.363 221.687 222.76C222.118 223.4 222.67 223.924 223.346 224.331C224.021 224.727 224.76 224.925 225.563 224.925C226.017 224.925 226.535 224.855 227.117 224.715C227.699 224.564 228.235 224.395 228.724 224.209C229.224 224.011 229.573 223.854 229.771 223.738L230.173 224.331C229.544 225.099 228.712 225.804 227.676 226.444C226.652 227.084 225.575 227.404 224.446 227.404C222.828 227.404 221.46 227.038 220.342 226.304C219.225 225.571 218.387 224.581 217.828 223.336C217.269 222.09 216.99 220.693 216.99 219.145C216.99 217.143 217.38 215.461 218.16 214.099C218.94 212.725 219.993 211.701 221.32 211.026C222.647 210.351 224.137 210.013 225.79 210.013C226.908 210.013 227.827 210.159 228.549 210.45C228.91 210.601 229.207 210.816 229.439 211.096C229.684 211.375 229.806 211.695 229.806 212.056C229.806 212.394 229.701 212.731 229.492 213.069C229.282 213.406 229.015 213.686 228.689 213.907C228.363 214.117 228.048 214.221 227.746 214.221C227.338 214.221 226.972 214.128 226.646 213.942L226.139 211.48ZM237.152 222.76C237.152 221.642 237.35 220.781 237.746 220.175C238.142 219.57 238.817 219.07 239.771 218.674C240.447 218.383 241.296 218.167 242.321 218.028C243.357 217.888 244.329 217.818 245.237 217.818C245.714 217.818 246.18 217.836 246.634 217.871V216.928C246.634 215.857 246.511 214.885 246.267 214.012C246.034 213.127 245.569 212.493 244.87 212.109C244.626 211.969 244.3 211.864 243.892 211.794C243.496 211.724 243.077 211.689 242.635 211.689C242.239 211.689 241.849 211.73 241.465 211.812L240.872 214.99C240.546 215.164 240.191 215.251 239.806 215.251C239.504 215.251 239.189 215.164 238.864 214.99C238.549 214.815 238.287 214.582 238.078 214.291C237.868 214 237.763 213.692 237.763 213.366C237.763 212.749 238.252 212.167 239.23 211.62C239.812 211.305 240.499 211.02 241.291 210.764C242.094 210.508 242.856 210.31 243.578 210.17C244.311 210.019 244.858 209.943 245.219 209.943C246.826 209.943 247.984 210.415 248.694 211.358C249.404 212.301 249.759 213.581 249.759 215.199V223.615C250.19 224.058 250.65 224.424 251.139 224.715C251.627 224.995 252.175 225.204 252.78 225.344L252.57 226.357C251.918 226.659 251.243 226.898 250.545 227.073C249.858 227.259 249.206 227.369 248.589 227.404C248.403 226.857 248.193 226.368 247.961 225.938C247.739 225.507 247.454 225.082 247.105 224.663C246.849 225.035 246.407 225.443 245.778 225.885C245.149 226.316 244.457 226.677 243.7 226.968C242.955 227.259 242.274 227.404 241.657 227.404C240.633 227.404 239.783 227.171 239.108 226.706C238.433 226.229 237.938 225.635 237.624 224.925C237.309 224.215 237.152 223.493 237.152 222.76ZM242.181 225.012C242.332 225.082 242.53 225.117 242.775 225.117C243.299 225.117 243.945 225.012 244.713 224.803C245.493 224.581 246.133 224.343 246.634 224.087V218.971C245.481 219.052 244.486 219.198 243.648 219.407C242.81 219.617 242.152 219.844 241.675 220.088C241.197 220.321 240.872 220.536 240.697 220.734C240.476 220.955 240.365 221.34 240.365 221.887C240.365 222.282 240.447 222.701 240.61 223.144C240.784 223.586 241.011 223.982 241.291 224.331C241.57 224.669 241.867 224.896 242.181 225.012ZM273.938 223.615C274.205 223.999 274.654 224.36 275.282 224.698C275.922 225.024 276.481 225.228 276.958 225.309L276.766 226.374C276.359 226.572 275.695 226.793 274.776 227.038C273.868 227.282 273.198 227.404 272.768 227.404C272.64 226.974 272.442 226.508 272.174 226.007C271.906 225.507 271.615 225.076 271.301 224.715C270.766 225.519 270.032 226.17 269.101 226.671C268.181 227.16 267.221 227.404 266.22 227.404C265.009 227.404 263.874 227.131 262.815 226.584C261.767 226.025 260.906 225.146 260.231 223.947C259.567 222.748 259.236 221.229 259.236 219.39C259.236 217.574 259.579 215.95 260.266 214.518C260.953 213.075 261.884 211.951 263.059 211.148C264.235 210.345 265.521 209.943 266.918 209.943C267.605 209.943 268.286 210.048 268.961 210.258C269.648 210.467 270.265 210.776 270.812 211.183V204.478L268.106 203.134L268.263 202.33L273.938 201.265V223.615ZM266.604 224.925C267.931 224.925 269.334 224.634 270.812 224.052V215.583C270.509 214.873 270.073 214.256 269.503 213.732C268.932 213.209 268.292 212.813 267.582 212.545C266.883 212.277 266.179 212.143 265.469 212.143C265.015 212.143 264.608 212.196 264.247 212.301C263.886 212.394 263.601 212.586 263.391 212.877C262.646 213.89 262.274 215.455 262.274 217.574C262.274 218.726 262.443 219.791 262.78 220.769C263.129 221.735 263.56 222.55 264.072 223.214C264.596 223.877 265.12 224.349 265.644 224.628C265.853 224.744 266.022 224.826 266.15 224.872C266.278 224.907 266.429 224.925 266.604 224.925ZM291.778 224.89C292.302 224.89 292.878 224.814 293.506 224.663C294.147 224.512 294.735 224.337 295.27 224.139C295.805 223.93 296.19 223.761 296.422 223.633L296.842 224.244C296.457 224.698 295.934 225.169 295.27 225.658C294.618 226.147 293.885 226.56 293.07 226.898C292.255 227.236 291.452 227.404 290.66 227.404C289.322 227.404 288.117 227.119 287.046 226.549C285.975 225.978 285.119 225.07 284.479 223.825C283.839 222.579 283.519 220.99 283.519 219.058C283.519 217.37 283.851 215.834 284.514 214.448C285.178 213.051 286.109 211.951 287.308 211.148C288.518 210.345 289.892 209.943 291.429 209.943C292.581 209.943 293.57 210.194 294.397 210.694C295.235 211.183 295.87 211.852 296.3 212.702C296.743 213.54 296.964 214.477 296.964 215.513C296.964 216.282 296.842 217.062 296.597 217.853C296.527 218.063 296.44 218.214 296.335 218.307C296.242 218.4 296.091 218.447 295.881 218.447H286.505C286.586 219.564 286.854 220.618 287.308 221.607C287.773 222.585 288.39 223.377 289.159 223.982C289.939 224.587 290.812 224.89 291.778 224.89ZM289.735 211.986C288.839 211.986 288.245 212.132 287.954 212.423C287.628 212.76 287.319 213.348 287.028 214.186C286.737 215.013 286.563 215.996 286.505 217.137L294.065 216.544C294.065 215.577 293.867 214.751 293.472 214.064C293.087 213.377 292.569 212.859 291.918 212.51C291.266 212.161 290.538 211.986 289.735 211.986ZM304.415 212.074L304.572 211.253L309.356 210.205L310.002 212.982C311.003 212.132 312.092 211.422 313.267 210.851C314.455 210.269 315.502 209.978 316.41 209.978C317.248 209.978 318.011 210.217 318.698 210.694C319.396 211.171 319.932 211.94 320.304 212.999C321.282 212.173 322.399 211.462 323.657 210.869C324.925 210.275 326.008 209.978 326.904 209.978C327.964 209.978 328.808 210.246 329.436 210.781C330.065 211.317 330.525 212.207 330.816 213.453C331.118 214.687 331.27 216.381 331.27 218.534V224.768L334.203 225.501L333.889 226.968H325.996L326.293 225.431L328.144 224.68V218.604C328.144 216.904 327.987 215.577 327.673 214.623C327.37 213.657 326.963 213.022 326.45 212.72C326.241 212.592 326.055 212.528 325.892 212.528C325.507 212.528 324.745 212.65 323.604 212.894C322.463 213.127 321.427 213.401 320.496 213.715C320.613 214.146 320.682 214.768 320.706 215.583C320.741 216.386 320.758 217.399 320.758 218.621V224.768L323.709 225.536L323.395 226.968H315.502L315.799 225.449L317.633 224.68V218.22C317.633 216.59 317.464 215.327 317.126 214.431C316.8 213.534 316.37 212.941 315.834 212.65C315.671 212.568 315.514 212.528 315.363 212.528C314.92 212.528 314.204 212.644 313.215 212.877C312.226 213.11 311.207 213.395 310.159 213.732C310.218 214.14 310.247 214.553 310.247 214.972L310.229 224.768L313.145 225.536L312.883 226.968H304.327L304.607 225.449L307.104 224.593V213.436L304.415 212.074ZM357.351 210.38L357.124 211.567L355.273 212.563L351.118 224.139C350.268 226.514 349.506 228.446 348.83 229.936C348.155 231.426 347.463 232.625 346.753 233.533C346.054 234.453 345.292 235.081 344.465 235.419C343.988 235.605 343.493 235.698 342.981 235.698C342.457 235.698 341.933 235.628 341.41 235.489C340.886 235.349 340.443 235.122 340.082 234.808C339.733 234.493 339.559 234.098 339.559 233.62C339.559 233.283 339.669 232.934 339.89 232.573C340.123 232.212 340.408 231.909 340.746 231.665C341.084 231.42 341.398 231.298 341.689 231.298C341.887 231.298 342.102 231.321 342.335 231.368C342.568 231.426 342.76 231.508 342.911 231.612L343.435 234.371C343.703 234.208 344.093 233.778 344.605 233.079C345.129 232.392 345.682 231.537 346.264 230.512C346.857 229.488 347.404 228.429 347.905 227.334L341.287 212.65L338.79 211.689L339.035 210.38H347.364L347.137 211.62L344.762 212.545L349.337 223.388L353.038 212.58L350.524 211.689L350.751 210.38H357.351Z" fill="#3D45AA"/>
</svg>
